<?xml version="1.0" standalone="no"?><!DOCTYPE svg PUBLIC "-//W3C//DTD SVG 1.1//EN" "http://www.w3.org/Graphics/SVG/1.1/DTD/svg11.dtd"><svg t="1611734784769" class="icon" viewBox="0 0 1024 1024" version="1.1" xmlns="http://www.w3.org/2000/svg" p-id="2547" xmlns:xlink="http://www.w3.org/1999/xlink" width="200" height="200"><defs><style type="text/css"></style></defs><path d="M297.984 571.904c-44.032 50.176-67.584 112.128-67.584 176.128 0 23.552 3.584 47.104 9.728 69.632 16.384 58.368 52.736 111.104 103.424 148.992 9.216 6.656 20.992 7.68 30.72 3.584l3.584-1.536c6.656-2.56 12.8-5.632 18.944-9.216 85.504-44.544 152.576-113.664 192-196.608l1.536-3.584c6.656 10.752 12.8 22.528 17.408 34.304 11.264 26.112 16.896 54.272 16.896 82.944 0 18.432-2.048 35.84-6.656 53.76-2.56 10.24 1.536 22.016 11.264 28.16 9.728 6.144 22.528 6.144 32.768 0 38.4-22.016 69.12-52.224 90.624-88.576 19.456-34.304 29.184-72.192 29.184-111.104 0-46.08-13.824-90.112-40.96-128.512-21.504-29.184-49.664-53.248-82.432-70.656-31.744-17.92-57.344-43.008-73.728-73.728-13.312-25.088-20.992-52.736-21.504-80.384 0-9.728-6.144-18.944-15.36-23.552s-20.48-4.608-29.184 0c-47.104 27.136-83.968 66.048-107.52 112.64-1.536 2.048-2.56 4.608-4.096 7.168-11.264 23.04-18.432 47.616-22.528 71.68-1.536 12.288-2.048 25.088-2.56 37.376 0 9.728 0.512 19.968 1.536 30.208-16.384-18.432-28.672-38.4-37.376-60.416-1.536-4.608-5.12-8.704-9.216-11.776-10.752-9.728-28.672-8.192-38.912 3.072z" fill="#E2E2E2" p-id="2548"></path><path d="M318.464 983.552c-5.632 0-11.264-2.048-15.36-5.12-132.096-100.864-203.264-215.04-212.48-338.432-13.312-182.784 115.712-317.44 121.344-323.072 7.168-7.168 17.408-9.728 27.136-6.144 9.216 3.584 15.872 11.776 16.896 22.016 6.656 71.68 45.056 121.344 83.968 154.624-26.112-58.368-34.304-117.248-24.064-176.128 29.184-169.472 197.12-276.48 204.288-281.088 6.656-4.096 14.336-5.12 22.016-2.56 7.168 2.56 13.312 8.192 15.872 15.36l66.56 183.296c4.608 13.312-2.048 28.16-15.36 32.768-13.312 4.608-28.16-2.048-32.768-15.36l-55.296-152.064C475.648 126.976 385.024 209.92 366.08 319.488c-12.8 75.264 10.752 152.064 70.656 227.328 7.168 8.704 7.168 21.504 1.024 30.72-6.656 9.216-18.432 12.8-29.184 9.216-6.656-2.56-148.48-54.272-192-193.024-34.304 49.152-81.92 138.24-74.24 242.688s68.608 202.752 180.736 291.84c50.688-21.504 235.008-111.616 226.816-283.648-0.512-10.24 5.632-19.968 14.848-24.576s20.48-2.56 28.16 4.608c1.536 1.536 43.008 41.472 69.632 101.376 26.112 58.368 29.696 116.224 10.752 169.472 51.712-24.064 123.904-69.632 160.768-147.968 41.984-90.624 29.696-204.8-37.888-339.456-6.144-12.8-1.024-28.16 11.264-34.304 12.8-6.144 28.16-1.024 34.304 11.264 74.752 149.504 87.552 279.04 38.4 384.512-71.68 153.088-247.808 196.608-255.488 198.144-10.24 2.56-21.504-2.048-27.136-10.752s-5.632-20.992 1.024-29.184c40.96-54.272 46.592-114.688 17.408-180.224-6.144-13.824-12.8-26.112-19.968-36.864-36.864 187.392-258.048 267.264-268.8 270.848-3.072 1.536-5.632 2.048-8.704 2.048z" fill="#CCCCCC" p-id="2549"></path><path d="M691.2 335.36a32.768 30.208 0 1 0 65.536 0 32.768 30.208 0 1 0-65.536 0Z" fill="#CCCCCC" p-id="2550"></path><path d="M437.76 577.536c-6.656 9.216-18.432 12.8-29.184 9.216-1.536-0.512-10.752-4.096-24.064-10.24-1.024 11.264-1.536 23.04-2.048 34.304 0 9.728 0.512 19.968 1.536 30.208-16.384-18.432-28.672-38.4-37.376-60.416-1.536-4.608-5.12-8.704-9.216-11.776-10.752-9.728-28.672-8.192-38.912 3.072-44.032 50.176-67.584 112.128-67.584 176.128 0 23.552 3.584 47.104 9.728 69.632 6.144 20.992 14.336 41.472 25.088 60.416 17.408 17.408 36.352 34.304 57.344 50.688 50.688-21.504 235.008-111.616 226.816-283.648-0.512-10.24 5.632-19.968 14.848-24.576s20.48-2.56 28.16 4.608c1.536 1.536 43.008 41.472 69.632 101.376 26.112 58.368 29.696 116.224 10.752 169.472 28.672-13.312 64-33.28 95.744-61.952 8.704-24.064 12.8-49.664 12.8-75.776 0-46.08-13.824-90.112-40.96-128.512-21.504-29.184-49.664-53.248-82.432-70.656-31.744-17.92-57.344-43.008-73.728-73.728-13.312-25.088-20.992-52.736-21.504-80.384 0-9.728-6.144-18.944-15.36-23.552-9.216-4.608-20.48-4.608-29.184 0-47.104 27.136-83.968 66.048-107.52 112.64-1.536 2.56-2.56 5.12-4.096 7.68 0 0.512-0.512 1.024-0.512 1.536 8.704 14.336 18.944 29.184 30.208 43.52 7.168 8.704 7.68 21.504 1.024 30.72zM662.016 958.464l7.68-4.608c-10.24 4.096-18.944 7.168-26.112 9.216 6.656 0 12.8-1.024 18.432-4.608z" fill="#FFC501" p-id="2551"></path><path d="M615.424 748.032c-6.144-13.824-12.8-26.112-19.968-36.864-30.208 151.552-180.224 232.96-242.176 260.096 7.168 2.048 14.336 1.536 20.992-1.024l3.584-1.536c6.656-2.56 12.8-5.632 18.944-9.216 85.504-44.544 152.576-113.664 192-196.608l1.536-3.584c6.656 10.752 12.8 22.528 17.408 34.304 11.264 26.112 16.896 54.272 16.896 82.944v3.072c14.336-40.96 11.776-84.992-9.216-131.584z" fill="#FFC501" p-id="2552"></path><path d="M841.728 386.048c-6.144-12.8-21.504-17.92-34.304-11.264-12.8 6.144-17.92 21.504-11.264 34.304 67.072 134.656 79.872 248.832 37.888 339.456-16.384 34.816-39.424 62.976-64.512 86.016-31.744 28.672-67.072 48.64-95.744 61.952 18.944-53.248 15.36-110.592-10.752-169.472-26.624-59.904-68.096-99.84-69.632-101.376-7.68-7.168-18.944-9.216-28.16-4.608s-15.36 13.824-14.848 24.576c8.192 172.032-176.128 262.144-226.816 283.648-20.992-16.384-39.936-33.28-57.344-50.688-76.8-75.776-118.272-156.672-124.416-241.664C134.144 532.48 181.76 443.392 216.064 394.24c33.28 106.496 124.416 161.28 167.936 182.784 13.312 6.656 22.528 9.728 24.064 10.24 10.752 3.584 22.528 0 29.184-9.216 6.656-9.216 6.144-22.016-1.024-30.72-11.264-14.336-21.504-29.184-30.208-43.52-36.864-60.928-50.688-122.88-40.448-183.808C384 210.432 475.136 127.488 520.192 92.16l55.296 152.064c4.608 13.312 19.456 19.968 32.768 15.36 13.312-4.608 19.968-19.456 15.36-32.768l-66.048-184.32c-2.56-7.168-8.192-12.8-15.872-15.36-7.168-2.56-15.36-1.536-22.016 2.56-7.168 4.608-175.104 111.616-204.288 281.088-10.24 59.392-2.048 118.272 24.064 176.128-38.4-32.768-76.8-82.944-83.456-154.624-1.024-9.728-7.68-18.432-16.896-22.016-9.216-3.584-19.968-1.024-27.136 6.144C206.336 322.56 77.312 457.216 90.624 640c8.704 123.392 80.384 237.056 212.48 338.432 4.608 3.584 10.24 5.12 15.36 5.12 3.072 0 5.632-0.512 8.704-1.536 2.048-0.512 11.776-4.096 26.624-10.752 61.952-27.648 212.48-108.544 242.176-260.096 7.168 10.752 13.824 23.552 19.968 36.864 20.48 46.592 23.552 90.624 9.216 131.584-6.144 16.896-14.848 32.768-26.624 48.64-6.656 8.704-6.656 20.48-1.024 29.184s16.896 13.312 27.136 10.752c1.536-0.512 8.192-2.048 19.456-5.632 7.168-2.048 15.872-5.12 26.112-9.216 58.88-23.04 159.744-76.288 209.92-183.296 49.152-104.96 36.352-234.496-38.4-384z" fill="#FF9E05" p-id="2553"></path><path d="M691.2 334.848a32.768 30.208 0 1 0 65.536 0 32.768 30.208 0 1 0-65.536 0Z" fill="#FF9E05" p-id="2554"></path></svg>