<?xml version="1.0" standalone="no"?><!DOCTYPE svg PUBLIC "-//W3C//DTD SVG 1.1//EN" "http://www.w3.org/Graphics/SVG/1.1/DTD/svg11.dtd"><svg t="1611410444850" class="icon" viewBox="0 0 1024 1024" version="1.1" xmlns="http://www.w3.org/2000/svg" p-id="5848" xmlns:xlink="http://www.w3.org/1999/xlink" width="200" height="200"><defs><style type="text/css"></style></defs><path d="M710.9 580.2l-83.4 83.4C582 709.2 525.7 744.7 465 766.4c-47 16.7-97.1 25.3-147.1 25.3-10.7 0-21.4-0.4-32-1.2-3.9-0.3-7.9-0.6-11.8-1l-19.9-2-2-20c-0.4-4-0.7-7.9-1-11.9-4.4-60.4 3.8-122.1 24.1-179.1 21.6-60.8 57.2-117 102.8-162.6l61.5-61.5 94.5-94.5L547 245c4.3-4.3 8.6-8.4 13-12.5 5.1 59.5 28.8 101.2 29.3 102.2-0.3-1.4-15.7-68.1-5.7-122.6 84.5-68.3 191.7-106.2 300.9-102.3h47.3V157c4.4 125.4-46.1 248.2-134.6 337l-0.6 0.6-85.7 85.6z" fill="#8ADCFF" p-id="5849"></path><path d="M196.2 845.3c-43-112.4 14.3-211.6 14.3-211.6S179.8 764.3 231 810.5l-34.8 34.8zM444 575.5c-6.5-64.2 1.4-130.2 23.1-191 16.1-45.1 38-88.6 66.9-126.7l-94.5 94.6c-28.9 38.1-50.8 81.6-66.9 126.7-21.6 60.8-29.6 126.8-23.1 191l2 20 75.7-40.8 18.8-53.7-2-20.1z" fill="#46CDFB" p-id="5850"></path><path d="M509.8 599.7c-14.6 0-29.3-0.7-43.8-2.2l-20-2-94.5 94.5 20 2c14.5 1.5 29.2 2.2 43.8 2.2 50 0 100.1-8.6 147.1-25.3 54.3-19.3 104-51.7 148.5-88.7l85.6-85.6 0.6-0.6c-41.2 34.8-89.8 62.4-140.1 80.4-47.1 16.7-97.2 25.3-147.2 25.3z" fill="#46CDFB" p-id="5851"></path><path d="M710.9 580.2l-83.4 83.4C582 709.2 525.7 744.7 465 766.4c-47 16.7-97.1 25.3-147.1 25.3-10.7 0-21.4-0.4-32-1.2-3.9-0.3-7.9-0.6-11.8-1l-11.4-1.2c36.2-4.9 71.8-13.5 106.1-25.7 73.5-26.2 141.5-69.2 196.7-124.3l100.9-100.9 103.5-103.6 0.7-0.7c87.1-87.4 143.8-202 159.1-323.4h2.1V157c4.4 125.4-46.1 248.2-134.6 337l-0.6 0.6-85.7 85.6z" fill="#46CDFB" p-id="5852"></path><path d="M710.9 580.2c-44.5 37-94.2 69.4-148.5 88.7-15.7 5.6-31.7 10.2-47.9 14 17.9-13.8 35-28.8 50.9-44.7l51.8-51.8c13.4-3.4 26.7-7.4 39.7-12 50.3-17.9 99-45.5 140.1-80.4l-0.6 0.6-85.5 85.6z" fill="#15B7FF" p-id="5853"></path><path d="M754.9 293.1l8.8-15.4-15 8.5c-43.8 24.9-84.1 55.7-119.8 91.3L92 914.6l98.5-28.8L664 412.3c35.5-35.5 66-75.6 90.9-119.2z" fill="#FDF17F" p-id="5854"></path><path d="M941.8 156.8v-47c0-5.5-4.5-10-10-10h-47.1c-55.1-1.9-109.9 6.3-163.1 24.6-52.4 18-100.9 44.9-144.2 79.9-1.9 1.5-3.1 3.6-3.5 6-1.7 9.1-2.7 18.5-3.2 27.8-0.2-2.1-0.4-4.3-0.6-6.5-0.3-3.8-2.8-7.1-6.4-8.5-3.6-1.4-7.6-0.6-10.4 2-5.1 4.7-9.3 8.8-13.3 12.7l-11.8 11.8c-0.4 0.3-0.9 0.7-1.3 1.1l-94.5 94.6c-0.3 0.3-0.5 0.5-0.7 0.8L371 406.8c-46.7 46.7-83.1 104.3-105.1 166.3-20.1 56.4-28.7 118-25 178.3L219.3 773c-18.3-53.4 0.7-136.1 0.9-137 0-0.2 0.1-0.4 0.1-0.5 0-0.2 0.1-0.3 0.1-0.5s0-0.5 0.1-0.7v-0.3-0.2-0.6-0.1c-0.4-5.2-4.7-9.3-10-9.3-2.6 0-4.9 1-6.7 2.6l-0.2 0.2c-0.2 0.2-0.4 0.4-0.5 0.6-0.2 0.2-0.4 0.5-0.6 0.8-0.1 0.1-0.2 0.3-0.3 0.5-0.1 0.2-0.2 0.4-0.4 0.6 0 0.1-0.1 0.2-0.1 0.2-1.8 3.3-13.5 24.7-22.1 57.8-11.3 43.3-12.2 87.7-2.7 128.7l-91.8 91.8c-3.2 3.2-3.9 8.2-1.5 12.2 1.8 3.1 5.1 4.9 8.6 4.9 0.9 0 1.9-0.1 2.8-0.4l98.5-28.8c1.6-0.5 3.1-1.3 4.3-2.5l92.1-92.1c9.3 0.6 18.8 0.9 28.2 0.9 51.5 0 102.1-8.7 150.5-25.9 62.3-22.3 119.8-58.6 166.2-105.1l83.4-83.4 85.7-85.6 0.6-0.6c91.6-92.2 141.7-217.7 137.3-344.4zM357.4 635c-1-51.7 7.4-104 24.6-152.5 16.7-46.9 38.5-88.3 64.8-123.1l34.6-34.6c-8.8 17.8-16.7 36.7-23.7 56.4-20.2 56.5-28.8 118.2-25 178.5L357.4 635z m-72.7-55.2c21.1-59.3 55.8-114.2 100.4-158.9l1.9-1.9c-8.8 17.9-16.8 36.8-23.9 56.7-20.1 56.7-28.8 118.3-25 178.4L260 732.2c-0.9-51.8 7.5-104 24.7-152.4z m-92.9 150.7c1.1 20.2 4.6 40.6 12.1 58l-10.2 10.2c-4.2-24.4-4.2-47.5-1.9-68.2z m-6.6 146.4L126.7 894l96.2-96.2 0.2-0.2 412.9-413c30.4-30.3 63.9-56.8 100-79.2-22.5 36.3-49 69.8-79 99.8L185.2 876.9z m519.4-304.6l-0.5 0.5c-49.7 41.3-97.2 69.6-145.1 86.7-46.2 16.4-94.5 24.7-143.8 24.7-3 0-6 0-9-0.1l26.7-26.7c0.9-0.6 1.7-1.4 2.3-2.3l46.3-46.3c9.2 0.6 18.6 0.9 28.2 0.9 51.5 0 102.1-8.7 150.6-25.9 19.9-7.1 39.4-15.7 58.2-25.4l-13.9 13.9zM461.7 757c-46.2 16.4-94.5 24.7-143.8 24.7-3 0-6 0-9-0.1l78.3-78.3c9.2 0.6 18.6 0.9 28.2 0.9 51.5 0 102.1-8.7 150.5-25.9 20-7.1 39.9-16.1 59.9-27l-5.3 5.3C576.1 701 521.2 735.7 461.7 757z m329.1-270.8c-0.1 0-0.1 0.1-0.2 0.1-39.8 33.6-87.1 60.8-137 78.6-46.3 16.4-94.7 24.7-143.9 24.7-3 0-6 0-9-0.1l170.2-170.2c35.9-35.9 67.1-76.8 92.5-121.3l8.8-15.4c2.2-3.9 1.6-8.8-1.6-12-3.2-3.2-8.1-3.9-12-1.6l-15 8.5c-44.4 25.2-85.4 56.5-121.9 92.9l-169.9 170c-1.1-51.9 7.4-104.2 24.6-152.6 16.7-46.7 38.4-88 64.5-122.7l11.5-11.5c7.4 46 24.1 78.8 27.8 85.6l0.1 0.1c2.3 4.4 7.5 6.5 12.2 4.8 4.8-1.7 7.5-6.6 6.5-11.5l-0.1-0.3c-1.5-6.7-14.1-65.7-6.2-114.8 40.8-32.4 86.3-57.4 135.2-74.2 50.9-17.5 103.5-25.4 156.1-23.5H921.7v37.6c4.3 120.9-43.4 240.7-130.9 328.8z" fill="#00435B" p-id="5855"></path></svg>