<?xml version="1.0" standalone="no"?><!DOCTYPE svg PUBLIC "-//W3C//DTD SVG 1.1//EN" "http://www.w3.org/Graphics/SVG/1.1/DTD/svg11.dtd"><svg t="1611410351344" class="icon" viewBox="0 0 1024 1024" version="1.1" xmlns="http://www.w3.org/2000/svg" p-id="2173" xmlns:xlink="http://www.w3.org/1999/xlink" width="200" height="200"><defs><style type="text/css"></style></defs><path d="M333.887928 352.637456c-6.034437-4.455475-7.30743-12.957103-2.837628-18.99154l63.672158-86.097914c32.054043-43.341111 63.035662-65.780169 96.906074-70.608128L491.628532 77.420277c0-7.505951 6.075369-13.580297 13.580297-13.580297 7.506974 0 13.580297 6.074346 13.580297 13.580297l0 99.519598c34.574447 4.65502 71.602781 26.790156 114.864074 68.963675 0.51677 0.503467 1.006933 1.061169 1.431605 1.644453l63.684438 86.097914c4.469801 6.034437 3.196809 14.536065-2.837628 18.99154-6.033413 4.482081-14.535041 3.170203-18.99154-2.837628l-63.035662-85.209684c-45.197388-43.897789-82.292238-64.003709-114.214275-61.4567-27.810393 2.241041-54.229089 21.484314-83.140559 60.568471L352.879468 349.799828c-2.665713 3.593851-6.763031 5.503341-10.927887 5.503341C339.152838 355.303168 336.31521 354.441545 333.887928 352.637456zM111.374088 444.093401l801.248753 0c7.506974 0 13.580297-6.074346 13.580297-13.580297s-6.074346-13.580297-13.580297-13.580297l-801.248753 0c-7.505951 0-13.580297 6.074346-13.580297 13.580297S103.868137 444.093401 111.374088 444.093401zM912.623865 932.99738l-801.248753 0c-7.505951 0-13.580297 6.074346-13.580297 13.580297s6.074346 13.580297 13.580297 13.580297l801.248753 0c7.506974 0 13.580297-6.074346 13.580297-13.580297S920.130839 932.99738 912.623865 932.99738zM165.696298 552.73782l0 285.196461c0 7.506974 6.074346 13.580297 13.580297 13.580297s13.580297-6.074346 13.580297-13.580297L192.856891 552.73782c0-7.506974-6.074346-13.580297-13.580297-13.580297S165.696298 545.230845 165.696298 552.73782zM274.340717 552.73782l0 285.196461c0 7.506974 6.074346 13.580297 13.580297 13.580297s13.580297-6.074346 13.580297-13.580297L301.50131 552.73782c0-7.506974-6.074346-13.580297-13.580297-13.580297S274.340717 545.230845 274.340717 552.73782zM450.886619 552.73782l0 285.196461c0 7.506974 6.075369 13.580297 13.580297 13.580297s13.580297-6.074346 13.580297-13.580297L478.047212 552.73782c0-7.506974-6.075369-13.580297-13.580297-13.580297S450.886619 545.230845 450.886619 552.73782zM559.531038 552.73782l0 285.196461c0 7.506974 6.074346 13.580297 13.580297 13.580297 7.505951 0 13.580297-6.074346 13.580297-13.580297L586.691631 552.73782c0-7.506974-6.074346-13.580297-13.580297-13.580297C565.605384 539.1565 559.531038 545.230845 559.531038 552.73782zM736.07694 552.73782l0 285.196461c0 7.506974 6.074346 13.580297 13.580297 13.580297 7.505951 0 13.580297-6.074346 13.580297-13.580297L763.237533 552.73782c0-7.506974-6.075369-13.580297-13.580297-13.580297C742.151285 539.1565 736.07694 545.230845 736.07694 552.73782zM844.721359 552.73782l0 285.196461c0 7.506974 6.074346 13.580297 13.580297 13.580297 7.506974 0 13.580297-6.074346 13.580297-13.580297L871.881952 552.73782c0-7.506974-6.074346-13.580297-13.580297-13.580297C850.795705 539.1565 844.721359 545.230845 844.721359 552.73782z" p-id="2174" fill="#1296db"></path></svg>