<?xml version="1.0" standalone="no"?><!DOCTYPE svg PUBLIC "-//W3C//DTD SVG 1.1//EN" "http://www.w3.org/Graphics/SVG/1.1/DTD/svg11.dtd"><svg t="1611734865419" class="icon" viewBox="0 0 1024 1024" version="1.1" xmlns="http://www.w3.org/2000/svg" p-id="3920" xmlns:xlink="http://www.w3.org/1999/xlink" width="200" height="200"><defs><style type="text/css"></style></defs><path d="M887.466667 98.986667H136.533333A94.08 94.08 0 0 0 42.666667 192v516.266667a119.466667 119.466667 0 0 0 92.16 113.066666l205.226666 41.173334S163.413333 925.013333 277.333333 925.013333h469.333334c114.133333 0-62.506667-62.506667-62.506667-62.506666l205.226667-40.96A119.68 119.68 0 0 0 981.333333 709.12V192a94.08 94.08 0 0 0-93.866666-93.013333z m0 605.013333H136.533333V183.466667h750.933334z" p-id="3921" fill="#fef965"></path><path d="M768 640l-213.333333-42.666667V256l213.333333-21.333333v405.333333zM469.333333 597.333333l-213.333333 42.666667v-106.666667h213.333333v64zM256 234.666667v256h213.333333V256z" p-id="3922" fill="#fef965"></path></svg>