<?xml version="1.0" standalone="no"?><!DOCTYPE svg PUBLIC "-//W3C//DTD SVG 1.1//EN" "http://www.w3.org/Graphics/SVG/1.1/DTD/svg11.dtd"><svg t="1611410802341" class="icon" viewBox="0 0 1102 1024" version="1.1" xmlns="http://www.w3.org/2000/svg" p-id="12099" xmlns:xlink="http://www.w3.org/1999/xlink" width="215.234375" height="200"><defs><style type="text/css"></style></defs><path d="M693.3756675 268.2231371l57.3293972-99.31391128a55.38989558 55.38989558 0 0 1 95.9483054 55.38989557l-31.83065076 55.10467444a142.61044193 142.61044193 0 0 1 111.43579943 137.41942144c1.0267954 84.31129284-3.99309241 154.304498-15.1167069 209.92257049a565.19370226 565.19370226 0 0 1-25.15648179 87.7054212 228.17670635 228.17670635 0 0 1-213.63044173 148.05816034H397.63013393a228.17670635 228.17670635 0 0 1-218.30806417-161.8058072c-7.2731323-23.95855442-13.69060263-49.74252199-19.22388776-77.40894766a974.02931573 974.02931573 0 0 1-18.76753393-206.1291318 142.63896368 142.63896368 0 0 1 105.53172716-135.59400828L213.80527463 224.2991214A55.38989558 55.38989558 0 0 1 309.78210179 168.90922582l57.89983948 100.28366245a2567.81508906 2567.81508906 0 0 1 325.72224798-0.96975117z m-178.91905994 151.85159831a57.04417676 57.04417676 0 0 0-88.61812815 47.51779923v183.1118068a57.04417676 57.04417676 0 0 0 88.61812815 47.51779922l137.70464258-91.55590339a57.04417676 57.04417676 0 0 0 0-95.00707597l-137.70464258-91.5559034z" fill="#F5A623" p-id="12100"></path></svg>