<?xml version="1.0" standalone="no"?><!DOCTYPE svg PUBLIC "-//W3C//DTD SVG 1.1//EN" "http://www.w3.org/Graphics/SVG/1.1/DTD/svg11.dtd"><svg t="1611411875028" class="icon" viewBox="0 0 1024 1024" version="1.1" xmlns="http://www.w3.org/2000/svg" p-id="17013" xmlns:xlink="http://www.w3.org/1999/xlink" width="200" height="200"><defs><style type="text/css"></style></defs><path d="M794.00990341 230.07019615c-15.5854317-15.57329541-36.47199763-25.0553837-49.48089363-41.9794489 140.51282489 182.78233125 128.17263882 404.81465837-4.5790246 537.57845808-139.99460503 139.97033245-366.94455941 148.4924397-567.58666429-6.34364208 24.45220978 18.86951348 35.50230755 51.28313363 58.30519466 74.08602075 155.5618323 155.56790045 407.78683733 155.56790045 563.34260148 0 155.55455052-155.55455052 155.55455052-407.77348741-0.00121362-563.34138785" fill="#fa436a" p-id="17014"></path><path d="M512.34102992 940.4294637c-55.66433659 0-109.93299911-10.56221867-161.30108681-31.39295762-53.19702755-21.57226667-100.91573097-53.25649541-141.82718578-94.16916386-40.91024118-40.91024118-72.5932563-88.62651733-94.16552296-141.82233125-20.83073897-51.36566045-31.391744-105.63432297-31.391744-161.29865956 0-55.66312297 10.56100503-109.93299911 31.391744-161.29987319 21.57226667-53.19702755 53.25406815-100.91573097 94.16552296-141.82961304 40.91266845-40.91145482 88.63015822-72.59204267 141.82839942-94.1630957 51.3680877-20.82952533 105.63675022-31.39053037 161.29987317-31.39053037s109.93178548 10.56100503 161.29865956 31.39053037c53.19702755 21.57105303 100.9133037 53.25164089 141.82354489 94.1630957 40.91145482 40.91388208 72.59082903 88.63258548 94.16309571 141.82961304 20.8283117 51.3680877 31.39053037 105.63675022 31.39053037 161.29987319 0 55.66433659-10.56221867 109.93178548-31.39053037 161.29865956-21.57105303 53.19581392-53.25285452 100.91209008-94.16309571 141.82233125-40.91024118 40.91266845-88.6253037 72.59568355-141.82233126 94.16916386-51.36687408 20.83073897-105.63675022 31.39295763-161.29987319 31.39295762z m0-796.68474311c-98.29914548 0-190.71461452 38.27787852-260.22039703 107.78002016-69.50578252 69.50820978-107.78366103 161.92367882-107.78366104 260.22161066s38.27787852 190.70854637 107.78366104 260.21311526c69.50699615 69.50820978 161.92125155 107.78851555 260.22039703 107.78851555 98.29793185 0 190.71097363-38.28030578 260.21311526-107.78730192 143.48014933-143.48014933 143.48014933-376.94608118 0-520.43593955-69.500928-69.50335525-161.91396978-107.78002015-260.21311526-107.78002016z" fill="#fa436a" p-id="17015"></path><path d="M682.164224 542.08223763H342.51419497c-16.7565843 0-30.34074075-13.58415645-30.34074075-30.34074074s13.58415645-30.34074075 30.34074075-30.34074074h339.65002903c16.75779792 0 30.34074075 13.58415645 30.34074075 30.34074074s-13.58294282 30.34074075-30.34074075 30.34074074z" fill="#fa436a" p-id="17016"></path><path d="M512.33860267 711.90785897c-16.7565843 0-30.34074075-13.58294282-30.34074075-30.34074075V341.91587555c0-16.7565843 13.58415645-30.34074075 30.34074075-30.34074073s30.34074075 13.58415645 30.34074074 30.34074073v339.65002904c0 16.75779792-13.58415645 30.34195437-30.34074074 30.34195438z" fill="#fa436a" p-id="17017"></path><path d="M682.164224 542.08223763H342.51419497c-16.7565843 0-30.34074075-13.58415645-30.34074075-30.34074074s13.58415645-30.34074075 30.34074075-30.34074074h339.65002903c16.75779792 0 30.34074075 13.58415645 30.34074075 30.34074074s-13.58294282 30.34074075-30.34074075 30.34074074z" fill="#fa436a" p-id="17018"></path><path d="M512.33860267 711.90785897c-16.7565843 0-30.34074075-13.58294282-30.34074075-30.34074075V341.91587555c0-16.7565843 13.58415645-30.34074075 30.34074075-30.34074073s30.34074075 13.58415645 30.34074074 30.34074073v339.65002904c0 16.75779792-13.58415645 30.34195437-30.34074074 30.34195438z" fill="#fa436a" p-id="17019"></path></svg>