<?xml version="1.0" standalone="no"?><!DOCTYPE svg PUBLIC "-//W3C//DTD SVG 1.1//EN" "http://www.w3.org/Graphics/SVG/1.1/DTD/svg11.dtd"><svg t="1611411854187" class="icon" viewBox="0 0 1026 1024" version="1.1" xmlns="http://www.w3.org/2000/svg" p-id="16239" xmlns:xlink="http://www.w3.org/1999/xlink" width="200.390625" height="200"><defs><style type="text/css"></style></defs><path d="M511.385846 0A510.566973 510.566973 0 1 1 0 511.385846 510.976409 510.976409 0 0 1 511.385846 0z m0 0" fill="#FF8657" p-id="16240"></path><path d="M534.723711 316.903639H777.928828a22.109556 22.109556 0 0 0 0-44.219113h-243.205117a22.109556 22.109556 0 0 0 0 44.219113zM777.928828 396.334266h-243.205117a22.109556 22.109556 0 0 0 0 44.219113H777.928828a22.109556 22.109556 0 0 0 0-44.219113z m-368.492602-171.144342H286.605358a63.872051 63.872051 0 0 0-61.415434 65.919232v131.019593A63.872051 63.872051 0 0 0 286.605358 488.047981h122.830868a63.872051 63.872051 0 0 0 61.82487-65.919232v-131.019593A63.872051 63.872051 0 0 0 409.436226 225.189924z m22.928428 196.938825a23.747301 23.747301 0 0 1-22.928428 24.566173H286.605358a23.747301 23.747301 0 0 1-22.928429-24.566173v-131.019593A23.747301 23.747301 0 0 1 286.605358 266.952419h122.830868a23.747301 23.747301 0 0 1 22.928428 24.566174z m345.564174 159.680127h-243.205117a22.109556 22.109556 0 0 0 0 44.219113H777.928828a22.109556 22.109556 0 0 0 0-44.219113z m0 122.830868h-243.205117a22.109556 22.109556 0 0 0 0 44.219112H777.928828a22.109556 22.109556 0 0 0 0-44.219112z m-368.492602-171.144342H286.605358a63.872051 63.872051 0 0 0-61.415434 67.147541v131.019592a63.872051 63.872051 0 0 0 61.415434 65.509796h122.830868a63.872051 63.872051 0 0 0 61.82487-65.919232v-131.019592a63.872051 63.872051 0 0 0-61.82487-65.509796z m22.928428 196.938824a23.747301 23.747301 0 0 1-22.928428 24.566174H286.605358a23.747301 23.747301 0 0 1-22.928429-24.566174v-131.019592a23.747301 23.747301 0 0 1 22.928429-24.566173h122.830868a23.747301 23.747301 0 0 1 22.928428 24.566173z m0 0" fill="#FFFFFF" p-id="16241"></path></svg>