<?xml version="1.0" standalone="no"?><!DOCTYPE svg PUBLIC "-//W3C//DTD SVG 1.1//EN" "http://www.w3.org/Graphics/SVG/1.1/DTD/svg11.dtd"><svg t="1611410633484" class="icon" viewBox="0 0 1024 1024" version="1.1" xmlns="http://www.w3.org/2000/svg" p-id="8448" xmlns:xlink="http://www.w3.org/1999/xlink" width="200" height="200"><defs><style type="text/css"></style></defs><path d="M167.6288 188.7744h-43.5712c-16.9472 0-30.72-13.7728-30.72-30.72s13.7728-30.72 30.72-30.72h43.5712c16.9472 0 30.72 13.7728 30.72 30.72s-13.7216 30.72-30.72 30.72zM896.4096 188.7744H275.6608c-16.9472 0-30.72-13.7728-30.72-30.72s13.7728-30.72 30.72-30.72h620.8c16.9472 0 30.72 13.7728 30.72 30.72s-13.7728 30.72-30.7712 30.72z" fill="#303135" p-id="8449"></path><path d="M167.6288 562.688h-43.5712c-16.9472 0-30.72-13.7728-30.72-30.72s13.7728-30.72 30.72-30.72h43.5712c16.9472 0 30.72 13.7728 30.72 30.72s-13.7216 30.72-30.72 30.72zM896.4096 562.688H275.6608c-16.9472 0-30.72-13.7728-30.72-30.72s13.7728-30.72 30.72-30.72h620.8c16.9472 0 30.72 13.7728 30.72 30.72s-13.7728 30.72-30.7712 30.72z" fill="#FF623E" p-id="8450"></path><path d="M167.6288 896.6656h-43.5712c-16.9472 0-30.72-13.7728-30.72-30.72s13.7728-30.72 30.72-30.72h43.5712c16.9472 0 30.72 13.7728 30.72 30.72s-13.7216 30.72-30.72 30.72zM896.4096 896.6656H275.6608c-16.9472 0-30.72-13.7728-30.72-30.72s13.7728-30.72 30.72-30.72h620.8c16.9472 0 30.72 13.7728 30.72 30.72s-13.7728 30.72-30.7712 30.72z" fill="#303135" p-id="8451"></path></svg>