<?xml version="1.0" standalone="no"?><!DOCTYPE svg PUBLIC "-//W3C//DTD SVG 1.1//EN" "http://www.w3.org/Graphics/SVG/1.1/DTD/svg11.dtd"><svg t="1611734836379" class="icon" viewBox="0 0 1024 1024" version="1.1" xmlns="http://www.w3.org/2000/svg" p-id="3301" xmlns:xlink="http://www.w3.org/1999/xlink" width="200" height="200"><defs><style type="text/css"></style></defs><path d="M686.628571 546.057143c-131.885714 0-238.857143 106.971429-238.857142 238.857143s106.971429 238.857143 238.857142 238.857143 238.857143-106.971429 238.857143-238.857143-106.971429-238.857143-238.857143-238.857143z m0 386.285714c-81.371429 0-147.428571-66.057143-147.428571-147.428571 0-81.485714 65.942857-147.428571 147.428571-147.428572 81.371429 0 147.428571 65.942857 147.428572 147.428572 0 81.371429-66.057143 147.428571-147.428572 147.428571z" p-id="3302" fill="#d81e06"></path><path d="M149.371429 1011.2c-11.657143 0-23.428571-4.457143-32.342858-13.371429L17.485714 898.285714c-8.571429-8.571429-13.371429-20.228571-13.371428-32.342857s4.8-23.771429 13.371428-32.342857l269.714286-269.714286-107.885714-32.342857c-16.685714-5.028571-29.028571-18.971429-32-36.114286-2.857143-17.142857 4.228571-34.514286 18.285714-44.685714l205.485714-148.571428-5.942857-253.485715c-0.457143-17.371429 9.142857-33.485714 24.571429-41.6 15.428571-8.114286 34.057143-6.628571 48.114285 3.542857l204.8 149.485715 239.2-84c16.457143-5.714286 34.742857-1.714286 47.085715 10.514285 12.457143 12.228571 16.914286 30.4 11.428571 46.857143l-78.857143 240.914286L1015.314286 576c15.314286 20.114286 11.428571 48.8-8.571429 64.114286-20.114286 15.314286-48.8 11.428571-64.114286-8.571429L774.285714 410.857143c-9.142857-12-11.771429-27.657143-7.085714-41.942857L824.685714 193.142857l-174.514285 61.257143c-14.171429 5.028571-29.942857 2.628571-42.057143-6.171429l-149.371429-109.028571 4.342857 184.914286c0.342857 15.085714-6.742857 29.257143-18.857143 38.057143l-149.828571 108.342857 92.571429 27.657143c15.428571 4.571429 27.314286 17.028571 31.2 32.571428 3.885714 15.657143-0.571429 32.114286-12 43.542857L114.514286 865.942857l34.857143 34.857143 186.171428-186.171429c17.828571-17.828571 46.742857-17.828571 64.685714 0s17.828571 46.742857 0 64.685715L181.714286 997.714286c-8.914286 9.028571-20.571429 13.485714-32.342857 13.485714z" p-id="3303" fill="#d81e06"></path><path d="M755.428571 750.628571h-34.628571v-34.628571c0-18.971429-15.314286-34.285714-34.285714-34.285714s-34.285714 15.314286-34.285715 34.285714v34.628571h-34.628571c-18.971429 0-34.285714 15.314286-34.285714 34.285715s15.314286 34.285714 34.285714 34.285714h34.628571v34.628571c0 18.971429 15.314286 34.285714 34.285715 34.285715s34.285714-15.314286 34.285714-34.285715v-34.628571H755.428571c18.971429 0 34.285714-15.314286 34.285715-34.285714s-15.314286-34.285714-34.285715-34.285715z" p-id="3304" fill="#d81e06"></path></svg>