<?xml version="1.0" standalone="no"?><!DOCTYPE svg PUBLIC "-//W3C//DTD SVG 1.1//EN" "http://www.w3.org/Graphics/SVG/1.1/DTD/svg11.dtd"><svg t="1611410716676" class="icon" viewBox="0 0 1024 1024" version="1.1" xmlns="http://www.w3.org/2000/svg" p-id="10157" xmlns:xlink="http://www.w3.org/1999/xlink" width="200" height="200"><defs><style type="text/css"></style></defs><path d="M657.153331 377.678867l96.267396 96.267397-320.019981-0.865072L432.535674 153.080017l96.267397 96.267396c102.379314-108.735707 197.142238-111.913904 197.142238-111.913904 53.672035-4.927146 99.896935 2.576408 139.12604 15.853373V79.473729H0v865.071348h865.071349V255.96709c-145.162733 19.182017-207.918018 121.711778-207.918018 121.711777z" fill="#E7ECED" p-id="10158"></path><path d="M528.803071 249.328607L432.535674 153.080017l0.865072 320.019981 320.019981 0.865072-96.267396-96.267397s107.419294-176.004408 366.846669-110.14615c0 0-100.00977-148.265707-298.054691-130.118014 0-0.018806-94.78173 3.178197-197.142238 111.895098z" fill="#ED8A19" p-id="10159"></path></svg>