<?xml version="1.0" standalone="no"?><!DOCTYPE svg PUBLIC "-//W3C//DTD SVG 1.1//EN" "http://www.w3.org/Graphics/SVG/1.1/DTD/svg11.dtd"><svg t="1611410217469" class="icon" viewBox="0 0 1024 1024" version="1.1" xmlns="http://www.w3.org/2000/svg" p-id="785" xmlns:xlink="http://www.w3.org/1999/xlink" width="400" height="400"><defs><style type="text/css"></style></defs><path d="M296.172308 412.750769L526.178462 11.027692l228.430769 403.298462 17.329231-9.452308c67.741538 9.452308 108.701538 23.630769 108.701538 39.384616 0 14.178462-37.809231 28.356923-99.249231 37.80923-64.590769 11.027692-154.387692 17.329231-255.212307 17.329231-78.769231 0-152.812308-4.726154-212.676924-11.027692-86.646154-9.452308-141.784615-25.206154-141.784615-44.110769 0-15.753846 42.535385-29.932308 108.701539-39.384616l15.753846 7.876923z" fill="#94C1FF" p-id="786"></path><path d="M649.058462 833.378462l-3.15077-75.618462-135.483077 58.289231-103.975384-55.138462v39.384616l-4.726154 20.48-40.96 40.96s14.178462 18.904615 14.178461 22.055384c0 3.150769 36.233846 23.630769 36.233847 23.630769l97.673846 20.48 83.495384-6.301538 83.495385-37.809231 15.753846-25.206154-42.535384-25.206153z" fill="#EAC6BB" p-id="787"></path><path d="M248.910769 899.544615c39.384615-14.178462 119.729231-31.507692 148.086154-70.892307 6.301538-9.452308 11.027692-20.48 11.027692-31.507693v-39.384615l1.575385-1.575385c39.384615 36.233846 83.495385 56.713846 116.578462 56.713847 34.658462 0 77.193846-22.055385 116.578461-56.713847l1.575385 1.575385v39.384615c0 7.876923 1.575385 15.753846 4.726154 22.055385 22.055385 47.261538 111.852308 64.590769 154.387692 80.344615 51.987692 18.904615 77.193846 39.384615 77.193846 89.796923v12.603077h-708.923077v-12.603077c0-50.412308 25.206154-70.892308 77.193846-89.796923z" fill="#94C1FF" p-id="788"></path><path d="M297.747692 530.904615v-44.110769h-31.507692v44.110769c1.575385 51.987692 0 193.772308-63.015385 236.307693 0 0 70.892308 47.261538 173.292308 47.261538l20.48 14.178462c6.301538-9.452308 11.027692-20.48 11.027692-31.507693v-39.384615l1.575385-1.575385c-61.44-51.987692-111.852308-137.058462-111.852308-225.28zM751.458462 530.904615v-44.110769h31.507692v44.110769c-1.575385 51.987692 0 193.772308 63.015384 236.307693 0 0-70.892308 47.261538-173.292307 47.261538l-20.48 14.178462c-6.301538-9.452308-11.027692-20.48-11.027693-31.507693v-39.384615l-1.575384-1.575385c59.864615-51.987692 111.852308-137.058462 111.852308-225.28z" fill="#5C9EFF" p-id="789"></path><path d="M770.363077 403.298462l-17.329231 9.452307h-456.861538l-17.329231-9.452307c-67.741538 9.452308-108.701538 23.630769-108.701539 39.384615 0 17.329231 55.138462 34.658462 141.784616 44.110769 58.289231 6.301538 132.332308 11.027692 212.676923 11.027692 99.249231 0 190.621538-6.301538 255.212308-17.32923 61.44-9.452308 99.249231-23.630769 99.24923-37.809231 1.575385-14.178462-40.96-28.356923-108.701538-39.384615z" fill="#94C1FF" p-id="790"></path><path d="M749.883077 404.873846L541.932308 37.809231l-15.753846 28.356923 196.923076 346.584615s23.630769-7.876923 26.781539-7.876923z" fill="#5C9EFF" p-id="791"></path><path d="M327.68 412.750769L541.932308 37.809231l-15.753846-28.356923-225.28 395.421538c3.150769 0 26.781538 7.876923 26.781538 7.876923z" fill="#D7E9FF" p-id="792"></path><path d="M300.898462 404.873846l-18.904616 34.658462c1.575385 0 122.88 20.48 244.184616 20.48 122.88 0 244.184615-20.48 244.184615-20.48l-18.904615-33.083077s-127.606154 12.603077-225.28 12.603077c-99.249231 0-223.704615-12.603077-225.28-14.178462z" fill="#D7E9FF" p-id="793"></path><path d="M749.883077 406.449231s-11.027692 1.575385-29.932308 3.150769l17.329231 29.932308s-111.852308 18.904615-226.855385 20.48h14.178462c122.88 0 244.184615-20.48 244.184615-20.48l-18.904615-33.083077z" opacity=".1" p-id="794"></path><path d="M313.501538 439.532308l17.329231-31.507693c-17.329231-1.575385-29.932308-3.150769-29.932307-3.150769l-18.904616 34.658462c1.575385 0 122.88 20.48 244.184616 20.48h17.32923c-118.153846-1.575385-230.006154-20.48-230.006154-20.48z" fill="#FFFFFF" opacity=".2" p-id="795"></path><path d="M526.178462 436.381538m-31.507693 0a31.507692 31.507692 0 1 0 63.015385 0 31.507692 31.507692 0 1 0-63.015385 0Z" fill="#D7E9FF" p-id="796"></path><path d="M526.178462 444.258462c-4.726154 0-7.876923-3.150769-7.876924-7.876924s3.150769-7.876923 7.876924-7.876923 7.876923 3.150769 7.876923 7.876923-4.726154 7.876923-7.876923 7.876924z" p-id="797"></path><path d="M526.178462 475.766154c-22.055385 0-39.384615-17.329231-39.384616-39.384616s17.329231-39.384615 39.384616-39.384615 39.384615 17.329231 39.384615 39.384615-18.904615 39.384615-39.384615 39.384616z m0-63.015385c-12.603077 0-23.630769 11.027692-23.63077 23.630769s11.027692 23.630769 23.63077 23.63077 23.630769-11.027692 23.630769-23.63077-11.027692-23.630769-23.630769-23.630769z" p-id="798"></path><path d="M754.609231 530.904615c0 88.221538-51.987692 173.292308-111.852308 226.855385-39.384615 36.233846-83.495385 56.713846-116.578461 56.713846-34.658462 0-77.193846-22.055385-116.578462-56.713846-59.864615-53.563077-111.852308-138.633846-111.852308-226.855385V488.369231c59.864615 6.301538 149.661538 11.027692 228.43077 11.027692 99.249231 0 163.84-3.150769 228.430769-12.603077v44.110769z" fill="#D7E9FF" p-id="799"></path><path d="M649.058462 833.378462l-3.15077-75.618462-135.483077 58.289231-103.975384-55.138462v39.384616l-4.726154 20.48-40.96 40.96s14.178462 18.904615 14.178461 22.055384c0 3.150769 36.233846 23.630769 36.233847 23.630769l97.673846 20.48 83.495384-6.301538 83.495385-37.809231 15.753846-25.206154-42.535384-25.206153z" fill="#D7E9FF" p-id="800"></path><path d="M649.058462 833.378462l-3.15077-75.618462-31.507692 12.603077 12.603077 70.892308c11.027692 55.138462-69.316923 78.769231-69.316923 78.76923l-58.289231 4.726154 7.876923 1.575385 83.495385-6.301539 83.495384-37.80923 15.753847-25.206154-40.96-23.630769z" fill="#94C1FF" p-id="801"></path><path d="M441.107692 905.846154s-36.233846-20.48-36.233846-23.630769c0-3.150769-14.178462-22.055385-14.178461-22.055385s29.932308-22.055385 40.96-40.96c11.027692-18.904615 4.726154-42.535385 4.726153-42.535385l-31.507692-15.753846v39.384616l-4.726154 20.48-40.96 40.96s14.178462 18.904615 14.178462 22.055384c0 3.150769 36.233846 23.630769 36.233846 23.630769l97.673846 20.48 23.630769-1.575384-89.796923-20.48z" fill="#FFFFFF" p-id="802"></path><path d="M297.747692 488.369231v29.932307c4.726154 0 11.027692 1.575385 15.753846 1.575385 59.864615 6.301538 132.332308 11.027692 212.676924 11.027692 86.646154 0 166.990769-4.726154 228.430769-12.603077v-31.507692c-64.590769 11.027692-129.181538 12.603077-228.430769 12.603077-80.344615 0-170.141538-4.726154-228.43077-11.027692z" fill="#94C1FF" p-id="803"></path><path d="M329.255385 530.904615v-9.452307c-4.726154 0-9.452308-1.575385-15.753847-1.575385s-11.027692-1.575385-15.753846-1.575385v-3.150769 15.753846c0 88.221538 51.987692 173.292308 111.852308 226.855385 39.384615 36.233846 83.495385 56.713846 116.578462 56.713846 4.726154 0 11.027692 0 15.753846-1.575384-31.507692-4.726154-67.741538-25.206154-100.824616-55.138462-61.44-53.563077-111.852308-138.633846-111.852307-226.855385z" fill="#FFFFFF" p-id="804"></path><path d="M723.101538 521.452308v9.452307c0 88.221538-51.987692 173.292308-111.852307 226.855385-33.083077 29.932308-70.892308 50.412308-100.824616 55.138462 4.726154 1.575385 11.027692 1.575385 15.753847 1.575384 34.658462 0 77.193846-22.055385 116.578461-56.713846 59.864615-53.563077 111.852308-137.058462 111.852308-226.855385v-15.753846 3.150769c-11.027692 0-22.055385 1.575385-31.507693 3.15077z" fill="#94C1FF" p-id="805"></path><path d="M723.101538 192.196923c-4.726154 0-7.876923-3.150769-7.876923-7.876923s3.150769-7.876923 7.876923-7.876923 7.876923 3.150769 7.876924 7.876923-3.150769 7.876923-7.876924 7.876923zM959.409231 50.412308c-4.726154 0-7.876923-3.150769-7.876923-7.876923s3.150769-7.876923 7.876923-7.876923 7.876923 3.150769 7.876923 7.876923-3.150769 7.876923-7.876923 7.876923zM927.901538 349.735385c-4.726154 0-7.876923-3.150769-7.876923-7.876923s3.150769-7.876923 7.876923-7.876924 7.876923 3.150769 7.876924 7.876924-3.150769 7.876923-7.876924 7.876923zM218.978462 270.966154c-4.726154 0-7.876923-3.150769-7.876924-7.876923s3.150769-7.876923 7.876924-7.876923 7.876923 3.150769 7.876923 7.876923-3.150769 7.876923-7.876923 7.876923zM92.947692 113.427692c-4.726154 0-7.876923-3.150769-7.876923-7.876923s3.150769-7.876923 7.876923-7.876923 7.876923 3.150769 7.876923 7.876923-3.150769 7.876923-7.876923 7.876923zM526.178462 442.683077c-4.726154 0-7.876923-3.150769-7.876924-7.876923s3.150769-7.876923 7.876924-7.876923 7.876923 3.150769 7.876923 7.876923-3.150769 7.876923-7.876923 7.876923zM526.178462 822.350769c-4.726154 0-7.876923-3.150769-7.876924-7.876923s3.150769-7.876923 7.876924-7.876923c83.495385 0 220.553846-133.907692 220.553846-275.692308 0-4.726154 3.150769-7.876923 7.876923-7.876923s7.876923 3.150769 7.876923 7.876923c0 154.387692-148.086154 291.446154-236.307692 291.446154z" fill="#116FFF" p-id="806"></path><path d="M526.178462 822.350769c-89.796923 0-236.307692-135.483077-236.307693-291.446154 0-4.726154 3.150769-7.876923 7.876923-7.876923s7.876923 3.150769 7.876923 7.876923c0 141.784615 137.058462 275.692308 220.553847 275.692308 4.726154 0 7.876923 3.150769 7.876923 7.876923s-4.726154 7.876923-7.876923 7.876923z" fill="#116FFF" p-id="807"></path><path d="M880.64 1011.396923h-708.923077c-4.726154 0-7.876923-3.150769-7.876923-7.876923v-12.603077c0-56.713846 28.356923-77.193846 81.92-97.673846 9.452308-3.150769 18.904615-6.301538 31.507692-9.452308 51.987692-15.753846 122.88-37.809231 122.88-85.070769 0-4.726154 3.150769-7.876923 7.876923-7.876923s7.876923 3.150769 7.876923 7.876923c0 58.289231-77.193846 83.495385-133.907692 100.824615-11.027692 3.150769-22.055385 6.301538-29.932308 9.452308-48.836923 18.904615-72.467692 34.658462-72.467692 83.495385v4.726154h693.169231V992.492308c0-47.261538-23.630769-64.590769-72.467692-83.495385-7.876923-3.150769-18.904615-6.301538-29.932308-9.452308-56.713846-17.329231-133.907692-40.96-133.907692-100.824615 0-4.726154 3.150769-7.876923 7.876923-7.876923s7.876923 3.150769 7.876923 7.876923c0 47.261538 70.892308 69.316923 122.88 85.070769 11.027692 3.150769 22.055385 6.301538 31.507692 9.452308 53.563077 20.48 81.92 40.96 81.92 97.673846v12.603077c0 3.150769-4.726154 7.876923-7.876923 7.876923z" fill="#116FFF" p-id="808"></path><path d="M408.024615 805.021538c-4.726154 0-7.876923-3.150769-7.876923-7.876923v-37.80923c0-4.726154 3.150769-7.876923 7.876923-7.876923s7.876923 3.150769 7.876923 7.876923v37.80923c0 3.150769-4.726154 7.876923-7.876923 7.876923zM644.332308 805.021538c-4.726154 0-7.876923-3.150769-7.876923-7.876923v-39.384615c0-4.726154 3.150769-7.876923 7.876923-7.876923s7.876923 3.150769 7.876923 7.876923v39.384615c0 3.150769-4.726154 7.876923-7.876923 7.876923zM849.132308 775.089231c-1.575385 0-3.150769 0-4.726154-1.575385-58.289231-39.384615-67.741538-152.812308-66.166154-242.609231 0-4.726154 4.726154-7.876923 7.876923-7.876923 4.726154 0 7.876923 3.150769 7.876923 7.876923-1.575385 69.316923 4.726154 193.772308 59.864616 230.006154 3.150769 3.150769 4.726154 7.876923 1.575384 11.027693-1.575385 1.575385-4.726154 3.150769-6.301538 3.150769z" fill="#116FFF" p-id="809"></path><path d="M675.84 822.350769c-4.726154 0-7.876923-3.150769-7.876923-7.876923s3.150769-7.876923 7.876923-7.876923c99.249231 0 168.566154-45.686154 168.566154-45.686154 3.150769-3.150769 7.876923-1.575385 11.027692 1.575385 3.150769 3.150769 1.575385 7.876923-1.575384 11.027692-3.150769 1.575385-74.043077 48.836923-178.018462 48.836923zM203.224615 775.089231c-3.150769 0-4.726154-1.575385-6.301538-3.150769-3.150769-3.150769-1.575385-7.876923 1.575385-11.027693 55.138462-36.233846 61.44-159.113846 59.864615-230.006154 0-4.726154 3.150769-7.876923 7.876923-7.876923s7.876923 3.150769 7.876923 7.876923c1.575385 74.043077-4.726154 201.649231-66.166154 242.609231-1.575385 0-3.150769 1.575385-4.726154 1.575385z" fill="#116FFF" p-id="810"></path><path d="M376.516923 822.350769c-103.975385 0-174.867692-47.261538-178.018461-48.836923-3.150769-3.150769-4.726154-7.876923-1.575385-11.027692 3.150769-3.150769 7.876923-4.726154 11.027692-1.575385 0 0 69.316923 45.686154 168.566154 45.686154 4.726154 0 7.876923 3.150769 7.876923 7.876923s-4.726154 7.876923-7.876923 7.876923zM526.178462 505.698462c-126.030769 0-362.338462-12.603077-362.338462-63.015385 0-12.603077 12.603077-31.507692 116.578462-47.261539 4.726154 0 7.876923 1.575385 9.452307 6.301539 0 4.726154-1.575385 7.876923-6.301538 9.452308-83.495385 12.603077-102.4 28.356923-102.4 31.507692 0 15.753846 119.729231 47.261538 346.584615 47.261538s346.584615-31.507692 346.584616-47.261538c0-4.726154-18.904615-18.904615-102.4-31.507692-4.726154 0-7.876923-4.726154-6.301539-9.452308 0-4.726154 4.726154-7.876923 9.452308-6.301539 103.975385 15.753846 116.578462 34.658462 116.578461 47.261539-3.150769 50.412308-241.033846 63.015385-365.48923 63.015385z" fill="#116FFF" p-id="811"></path><path d="M281.993846 447.409231c-1.575385 0-3.150769 0-3.150769-1.575385-3.150769-1.575385-4.726154-6.301538-3.150769-11.027692L518.301538 6.301538c1.575385-3.150769 6.301538-4.726154 11.027693-3.150769 3.150769 1.575385 4.726154 6.301538 3.150769 11.027693L288.295385 444.258462c-1.575385 1.575385-4.726154 3.150769-6.301539 3.150769z" fill="#116FFF" p-id="812"></path><path d="M770.363077 447.409231c-3.150769 0-4.726154-1.575385-6.301539-4.726154L518.301538 14.178462c-1.575385-3.150769-1.575385-7.876923 3.15077-11.027693 3.150769-1.575385 7.876923-1.575385 11.027692 3.150769l244.184615 430.08c1.575385 3.150769 1.575385 7.876923-3.150769 11.027693h-3.150769zM754.609231 538.781538c-4.726154 0-7.876923-3.150769-7.876923-7.876923v-15.753846c0-4.726154 3.150769-7.876923 7.876923-7.876923s7.876923 3.150769 7.876923 7.876923v15.753846c0 3.150769-4.726154 7.876923-7.876923 7.876923zM786.116923 538.781538c-4.726154 0-7.876923-3.150769-7.876923-7.876923v-15.753846c0-4.726154 3.150769-7.876923 7.876923-7.876923s7.876923 3.150769 7.876923 7.876923v15.753846c0 3.150769-4.726154 7.876923-7.876923 7.876923zM297.747692 538.781538c-4.726154 0-7.876923-3.150769-7.876923-7.876923v-15.753846c0-4.726154 3.150769-7.876923 7.876923-7.876923s7.876923 3.150769 7.876923 7.876923v15.753846c0 3.150769-4.726154 7.876923-7.876923 7.876923zM266.24 538.781538c-4.726154 0-7.876923-3.150769-7.876923-7.876923v-15.753846c0-4.726154 3.150769-7.876923 7.876923-7.876923s7.876923 3.150769 7.876923 7.876923v15.753846c0 3.150769-4.726154 7.876923-7.876923 7.876923zM526.178462 475.766154c-22.055385 0-39.384615-17.329231-39.384616-39.384616s17.329231-39.384615 39.384616-39.384615 39.384615 17.329231 39.384615 39.384615-18.904615 39.384615-39.384615 39.384616z m0-63.015385c-12.603077 0-23.630769 11.027692-23.63077 23.630769s11.027692 23.630769 23.63077 23.63077 23.630769-11.027692 23.630769-23.63077-11.027692-23.630769-23.630769-23.630769zM526.178462 932.627692c-121.304615 0-154.387692-48.836923-155.963077-50.412307-3.150769-3.150769-1.575385-7.876923 1.575384-11.027693 3.150769-3.150769 7.876923-1.575385 11.027693 1.575385 0 0 31.507692 44.110769 143.36 44.110769s143.36-44.110769 143.36-44.110769c3.150769-3.150769 7.876923-4.726154 11.027692-1.575385 3.150769 3.150769 4.726154 7.876923 1.575384 11.027693-1.575385 1.575385-36.233846 50.412308-155.963076 50.412307z" fill="#116FFF" p-id="813"></path><path d="M575.015385 466.313846c-4.726154 0-7.876923-3.150769-7.876923-7.876923s3.150769-7.876923 7.876923-7.876923c140.209231-3.150769 192.196923-17.329231 192.196923-18.904615 4.726154-1.575385 7.876923 1.575385 9.452307 4.726153 1.575385 4.726154-1.575385 7.876923-4.726153 9.452308-1.575385 1.575385-53.563077 17.329231-196.923077 20.48 1.575385 0 1.575385 0 0 0zM475.766154 466.313846c-141.784615-3.150769-193.772308-18.904615-196.923077-18.904615-4.726154-1.575385-6.301538-6.301538-4.726154-9.452308 1.575385-4.726154 6.301538-6.301538 9.452308-4.726154 0 0 51.987692 15.753846 192.196923 18.904616 4.726154 0 7.876923 3.150769 7.876923 7.876923 0 3.150769-3.150769 6.301538-7.876923 6.301538zM578.166154 426.929231c-4.726154 0-7.876923-3.150769-7.876923-7.876923s3.150769-7.876923 7.876923-7.876923c56.713846-1.575385 103.975385-4.726154 143.36-9.452308 4.726154 0 7.876923 3.150769 9.452308 6.301538 0 4.726154-3.150769 7.876923-6.301539 9.452308-40.96 4.726154-89.796923 7.876923-146.510769 9.452308zM472.615385 426.929231c-56.713846-1.575385-105.550769-4.726154-144.935385-9.452308-4.726154 0-7.876923-4.726154-6.301538-9.452308 0-4.726154 4.726154-7.876923 9.452307-6.301538 39.384615 4.726154 86.646154 7.876923 143.36 9.452308 4.726154 0 7.876923 3.150769 7.876923 7.876923-1.575385 4.726154-4.726154 7.876923-9.452307 7.876923z" fill="#116FFF" p-id="814"></path><path d="M864.886154 223.704615c-4.726154 0-7.876923-3.150769-7.876923-7.876923v-63.015384c0-4.726154 3.150769-7.876923 7.876923-7.876923s7.876923 3.150769 7.876923 7.876923v63.015384c0 3.150769-4.726154 7.876923-7.876923 7.876923z" fill="#116FFF" p-id="815"></path><path d="M880.64 192.196923h-31.507692c-4.726154 0-7.876923-3.150769-7.876923-7.876923s3.150769-7.876923 7.876923-7.876923h31.507692c4.726154 0 7.876923 3.150769 7.876923 7.876923s-4.726154 7.876923-7.876923 7.876923z" fill="#116FFF" p-id="816"></path><path d="M61.44 348.16c-4.726154 0-7.876923-3.150769-7.876923-7.876923v-63.015385c0-4.726154 3.150769-7.876923 7.876923-7.876923s7.876923 3.150769 7.876923 7.876923v63.015385c0 4.726154-4.726154 7.876923-7.876923 7.876923z" fill="#116FFF" p-id="817"></path><path d="M77.193846 316.652308h-31.507692c-4.726154 0-7.876923-3.150769-7.876923-7.876923s3.150769-7.876923 7.876923-7.876923h31.507692c4.726154 0 7.876923 3.150769 7.876923 7.876923s-4.726154 7.876923-7.876923 7.876923z" fill="#116FFF" p-id="818"></path><path d="M281.993846 129.181538c-4.726154 0-7.876923-3.150769-7.876923-7.876923v-63.015384c0-4.726154 3.150769-7.876923 7.876923-7.876923s7.876923 3.150769 7.876923 7.876923v63.015384c0 3.150769-4.726154 7.876923-7.876923 7.876923z" fill="#116FFF" p-id="819"></path><path d="M297.747692 97.673846h-31.507692c-4.726154 0-7.876923-3.150769-7.876923-7.876923s3.150769-7.876923 7.876923-7.876923h31.507692c4.726154 0 7.876923 3.150769 7.876923 7.876923s-4.726154 7.876923-7.876923 7.876923z" fill="#116FFF" p-id="820"></path></svg>