<?xml version="1.0" standalone="no"?><!DOCTYPE svg PUBLIC "-//W3C//DTD SVG 1.1//EN" "http://www.w3.org/Graphics/SVG/1.1/DTD/svg11.dtd"><svg t="1612785204216" class="icon" viewBox="0 0 1024 1024" version="1.1" xmlns="http://www.w3.org/2000/svg" p-id="2145" xmlns:xlink="http://www.w3.org/1999/xlink" width="200" height="200"><defs><style type="text/css"></style></defs><path d="M787 214.5c-110.8-10-194.6-69.2-234.8-98.1-9.6-6.9-20.8-10.6-32.4-10.6-14 0-27.7 5.4-38.6 15.3-67.5 61-180.5 87.2-241.9 91.9-30.3 2.3-54 29.7-54 62.4V535c0 124.2 184.7 385.7 329.7 385.7 151.7 0 325.6-266.9 325.6-376.1V276.7c0.1-32.8-23-59.5-53.6-62.2zM540.9 513.4v160.4c0 15.7-12.7 28.5-28.5 28.5-15.7 0-28.5-12.7-28.5-28.5V513c-39.2-12.4-67.8-48.8-67.8-92 0-53.4 43.4-96.8 96.8-96.8s96.9 43.4 96.9 96.8c0.1 43.6-29.1 80.4-68.9 92.4z" fill="#3259CE" p-id="2146"></path></svg>