<?xml version="1.0" standalone="no"?><!DOCTYPE svg PUBLIC "-//W3C//DTD SVG 1.1//EN" "http://www.w3.org/Graphics/SVG/1.1/DTD/svg11.dtd"><svg t="1612785365911" class="icon" viewBox="0 0 1024 1024" version="1.1" xmlns="http://www.w3.org/2000/svg" p-id="2954" xmlns:xlink="http://www.w3.org/1999/xlink" width="200" height="200"><defs><style type="text/css"></style></defs><path d="M176 809V185c0-17.7-14.3-32-32-32s-32 14.3-32 32v656c0 17.7 14.3 32 32 32h736c17.7 0 32-14.3 32-32s-14.3-32-32-32H176z" fill="#691FFF" p-id="2955"></path><path d="M482.1 335.6l-181 181c-12.5 12.5-12.5 32.8 0 45.3s32.8 12.5 45.3 0l158.4-158.4 158.4 158.4c12.5 12.5 32.8 12.5 45.3 0l181-181c12.5-12.5 12.5-32.8 0-45.3s-32.8-12.5-45.3 0L685.7 494 527.3 335.6c-12.5-12.5-32.7-12.5-45.2 0z" fill="#E04DFF" p-id="2956"></path></svg>