<?xml version="1.0" standalone="no"?><!DOCTYPE svg PUBLIC "-//W3C//DTD SVG 1.1//EN" "http://www.w3.org/Graphics/SVG/1.1/DTD/svg11.dtd"><svg t="1611410607551" class="icon" viewBox="0 0 1024 1024" version="1.1" xmlns="http://www.w3.org/2000/svg" p-id="7260" xmlns:xlink="http://www.w3.org/1999/xlink" width="200" height="200"><defs><style type="text/css"></style></defs><path d="M509.866667 627.2c-10.666667 0-21.333333-2.133333-29.866667-8.533333L83.2 403.2c-29.866667-17.066667-40.533333-53.333333-25.6-85.333333 6.4-10.666667 14.933333-19.2 25.6-23.466667L480 76.8c19.2-10.666667 40.533333-10.666667 59.733333 0L938.666667 294.4c29.866667 17.066667 40.533333 53.333333 25.6 85.333333-6.4 10.666667-14.933333 19.2-25.6 25.6L539.733333 618.666667c-8.533333 6.4-19.2 8.533333-29.866666 8.533333zM160 347.733333l349.866667 189.866667 349.866666-189.866667-349.866666-189.866666-349.866667 189.866666z" fill="#4E4E4E" p-id="7261"></path><path d="M509.866667 785.066667c-10.666667 0-21.333333-2.133333-29.866667-8.533334L83.2 561.066667c-19.2-12.8-25.6-38.4-14.933333-57.6 10.666667-19.2 36.266667-25.6 55.466666-17.066667l386.133334 211.2L896 486.4c21.333333-10.666667 46.933333-4.266667 57.6 17.066667s4.266667 46.933333-17.066667 57.6L539.733333 778.666667c-8.533333 4.266667-19.2 6.4-29.866666 6.4z" fill="#FF9813" p-id="7262"></path><path d="M509.866667 945.066667c-10.666667 0-21.333333-2.133333-29.866667-8.533334L83.2 721.066667c-21.333333-10.666667-27.733333-36.266667-17.066667-57.6 10.666667-21.333333 36.266667-27.733333 57.6-17.066667l386.133334 211.2 386.133333-213.333333c21.333333-10.666667 46.933333-4.266667 57.6 17.066666s4.266667 46.933333-17.066667 57.6L539.733333 936.533333c-8.533333 4.266667-19.2 8.533333-29.866666 8.533334z" fill="#4E4E4E" p-id="7263"></path></svg>