<?xml version="1.0" standalone="no"?><!DOCTYPE svg PUBLIC "-//W3C//DTD SVG 1.1//EN" "http://www.w3.org/Graphics/SVG/1.1/DTD/svg11.dtd"><svg t="1611410339434" class="icon" viewBox="0 0 1024 1024" version="1.1" xmlns="http://www.w3.org/2000/svg" p-id="1760" xmlns:xlink="http://www.w3.org/1999/xlink" width="200" height="200"><defs><style type="text/css"></style></defs><path d="M157.935856 606.18955h696.652108v177.068973H157.935856z" fill="#872559" p-id="1761"></path><path d="M399.212396 783.258523c0-76.052757 47.93427-137.714162 107.067964-137.714163s107.031063 61.661405 107.031063 137.714163M210.51964 783.258523c0-54.318126 30.886054-98.377802 69.096937-98.377802 38.118631 0 69.041586 44.059676 69.041585 98.377802M659.382198 783.258523c0-54.318126 30.922955-98.377802 69.078487-98.377802 38.118631 0 69.078486 44.059676 69.078486 98.377802" fill="#FFFFFF" p-id="1762"></path><path d="M279.561225 507.49809h448.89946v75.425442h-448.89946z" fill="#872559" p-id="1763"></path><path d="M797.557622 510.78227H210.51964l73.617297-62.307171h436.906667z" fill="#872559" p-id="1764"></path><path d="M281.830631 373.049658h448.862558v75.425441H281.830631z" fill="#872559" p-id="1765"></path><path d="M208.526991 369.119712c94.650811-32.841802 177.271928-66.274018 295.686919-174.707316 117.658523 112.547748 197.696577 143.562955 293.325261 178.637262" fill="#872559" p-id="1766"></path></svg>